<svg xmlns="http://www.w3.org/2000/svg" width="202.3" height="51.4" viewBox="0 0 202.3 51.4"><defs><style>.a{fill:#fff}.b{fill:#c6271e}</style></defs><title>株式会社ネコメシ</title><path class="a" d="M46.8 17.5a12.5 12.5 0 0 0-1-2.8A14.5 14.5 0 0 0 48.1.4c-7 .8-11.1 5.2-12.4 8.9a10.4 10.4 0 0 0-8.6-4.2 10.4 10.4 0 0 0-8.6 4.2C17.2 5.6 13.1 1.2 6.1.4a14.5 14.5 0 0 0 2.4 14.3 12.5 12.5 0 0 0-1 2.8c-4.1 3.3-5.5 13.9-4 16.8h47.3c1.5-2.8.1-13.4-4-16.8z"/><path d="M51.7 23.5a12 12 0 0 0-3.3-6.4 3.5 3.5 0 0 1-.3-1.1c-.1-.6.2-.7.5-1.1a11.1 11.1 0 0 0 1.7-4.1c.8-3.4 0-8.2-1.7-10.3a1.1 1.1 0 0 0-.7-.4 14.9 14.9 0 0 0-4.7.4 13.1 13.1 0 0 0-8.4 5.6 12.8 12.8 0 0 0-7.7-3 12.8 12.8 0 0 0-7.7 3A13.1 13.1 0 0 0 11.1.5 14.9 14.9 0 0 0 6.4.1a1.1 1.1 0 0 0-.7.4C3.9 2.6 3.1 7.3 3.9 10.7a11.1 11.1 0 0 0 1.7 4.1c.4.5.6.6.5 1.1a3.5 3.5 0 0 1-.3 1.1 12 12 0 0 0-3.3 6.4c-.1.6-.5 5.3.4 5.3s1.2-3 1.5-3.6a17.4 17.4 0 0 1 2.8-4.4c.5-.5 1.5-1 1.8-1.6s.1-2.8 2.4-5.3a6.8 6.8 0 0 1 4.8-2.4c.9 0 2.6.7 3.3 0s.9-1.3 1.5-1.9a9.9 9.9 0 0 1 6.1-2.7 9.9 9.9 0 0 1 6.1 2.7c.6.6.9 1.3 1.5 1.9s2.4 0 3.3 0a6.8 6.8 0 0 1 4.8 2.6c2.2 2.5 1.6 3.7 2.4 5.3s1.3 1.1 1.8 1.6a17.4 17.4 0 0 1 2.8 4.4c.3.5 1.1 3.6 1.5 3.6s.5-4.7.4-5.4zm-43-12.1a20.7 20.7 0 0 1-1.9-5.6 13.3 13.3 0 0 1-.4-5 20.4 20.4 0 0 1 8.9 6.9 11 11 0 0 0-6.6 3.7zm38.8-5.6a20.7 20.7 0 0 1-1.9 5.6A11 11 0 0 0 39 7.7 20.4 20.4 0 0 1 47.9.8a13.3 13.3 0 0 1-.4 5zM2.6 34.4a63.7 63.7 0 0 0 13.6 11.4l-3.8 5.5h29.4L38 45.8a59.9 59.9 0 0 0 13.5-11.4z"/><path class="b" d="M0 30.9c.7.9 1.6 2.2 2.6 3.4h48.9l2.7-3.4z"/><path d="M68.1 38c11.7-8.1 16-17.3 16-18s-.1-.2-.2-.2S78 22 76.8 22s-4.9-2.2-4.9-4.6a1 1 0 0 1 .2-.7 26 26 0 0 0 4.4.5 49.4 49.4 0 0 0 9.1-1.5 33 33 0 0 1 3.4-1.3c1 0 3.7 2.1 3.7 3s-.1.4-1.2 1.3a10.7 10.7 0 0 0-2.2 2.1c-.4.5-2.1 4.2-2.4 4.6 1.5.5 1.9 1.3 1.9 2.1s-.4 2.1-.4 2.5a13.2 13.2 0 0 0-.1 1.9c0 1.6.3 9.7.3 10.2s-.3 3.1-1.8 3.1-3.4-3.1-3.4-4.6.6-3.4.7-4a37.9 37.9 0 0 0 .3-4.5 13.2 13.2 0 0 0-.3-3.5c-4.5 4.5-9.8 8.3-15.7 9.8zm11-32.1h1.5c3 0 8.5 1.6 8.5 5.3a2.3 2.3 0 0 1-2.1 2.1c-1.4 0-1.9-.9-3.5-3.2A16.4 16.4 0 0 0 79 6.3zm10.6 19.7c7.2.4 11.6 5 11.6 6.9a2.5 2.5 0 0 1-2.4 2.6c-1.5 0-2.1-1.6-3.5-3.6s-4.9-4.3-6-5.6zM131 37.9c0 1.8-2.2 1.8-3.2 1.8l-6.6-.3a54 54 0 0 0-8.5 1c-.5.1-2.7.7-3.2.7s-4.3-2.4-4.3-5.1a2.8 2.8 0 0 1 .1-.7 20.7 20.7 0 0 0 4.7.6c2.8 0 7.3-.6 12.9-1.1.5-2.6 1.2-10.9 1.2-12.5s-.2-.5-.5-.5a95.6 95.6 0 0 0-10.7 2.2 23.8 23.8 0 0 1-2.7.8c-.7 0-5.2-2.9-4.8-5.7a58.8 58.8 0 0 0 6.5.4c2.6 0 10.3-.5 11.8-1.5s1.7-1 2.1-1 5.8 3.1 5.8 4.6-.3.8-1 1.5a5.8 5.8 0 0 0-1.9 3.4c-.4 1.5-1.4 7.3-1.7 8.4 1.4.4 4 1.2 4 3zm3.2 5.6c2.9-2.4 9.9-7.9 15.4-16.4a48.7 48.7 0 0 0-6.8-5.4l.2-.4a30.8 30.8 0 0 1 8.5 2.7c2.6-4.9 4.4-9 4.4-10.2a4.9 4.9 0 0 0-.7-2.3 2.3 2.3 0 0 1 1-.3c2.2 0 5.8 2.8 5.8 5.4 0 .6-.2.7-1 1.3a6.1 6.1 0 0 0-1.8 2.1l-3.8 6.6c1.3 1.1 5.1 4.3 5.1 7.7a2.3 2.3 0 0 1-2.4 2.5c-1.7 0-2.7-1.5-3.4-2.7l-2-3.2c-1.5 2.2-11.7 10.9-18.3 13.1zm34.9-22.2a11.6 11.6 0 0 1 3.3-.5c3.5 0 5.9 2 5.9 4.4a2.5 2.5 0 0 1-2.1 2.7c-.7 0-1.1-.4-2.2-1.9a15.7 15.7 0 0 0-5.1-4.3zm33.2-5.8c-4.4 11.2-19.4 22.1-22.9 24.6l-1.8 1.5c-.6.5-.8.7-1.3.7s-1.3-.2-3.3-3.5c-1-1.7-1.2-2.4-1.2-3.2a1 1 0 0 1 .1-.5 15.4 15.4 0 0 0 3.2.8c1.9 0 7.7-3.8 10.2-5.5a94.3 94.3 0 0 0 16.8-15.2zM174 13.1a11.1 11.1 0 0 1 4.1-.8c3.7 0 5.8 2 5.8 4.3a2.3 2.3 0 0 1-1.8 2.5c-.7 0-.9-.2-2.9-2.4a12.3 12.3 0 0 0-5.1-3.2z"/></svg>